# xmcd
#
# Track frame offsets:
#	150
#	17531
#	29447
#	47114
#	62267
#	78374
#	96891
#	114033
#	132150
#	146508
#	159339
#
# Disc length: 2350 seconds
#
# Revision: 2
# Processed by: cddbd v1.5.2PL0 Copyright (c) Steve Scherf et al.
# Submitted via: EasyCDDAExtractor 4.6.9.1
#
DISCID=7c092c0b
DTITLE=Tracy Lawrence - For The Love
DYEAR=2007
DGENRE=Country
TTITLE0=Find out Who Your Friends Are
TTITLE1=Just Like Her
TTITLE2=You Can't Hide Redneck
TTITLE3=For The Love
TTITLE4=As Easy As Our Blessings
TTITLE5=Speed Of Flight
TTITLE6=Rock And A Soft Place
TTITLE7='Til I Was a Daddy Too
TTITLE8=You're Why God Made Me
TTITLE9=Just Like That
TTITLE10=Find Out Who Your Friends Are - Kenny Chesney, Tracy Lawrence, Tim Mc
TTITLE10=Graw
EXTD=
EXTT0=
EXTT1=
EXTT2=
EXTT3=
EXTT4=
EXTT5=
EXTT6=
EXTT7=
EXTT8=
EXTT9=
EXTT10=
PLAYORDER=
